<?xml version="1.0" encoding="UTF-8"?>
<svg id="Layer_1" data-name="Layer 1" xmlns="http://www.w3.org/2000/svg" viewBox="0 0 1056 1000">
  <defs>
    <style>
      .cls-1 {
        fill: none;
        stroke: #000;
        stroke-miterlimit: 10;
      }
    </style>
  </defs>
  <path class="cls-1" d="M629,190.5l238.8,272.22c10,11.34,38.95,45.62,44.45,54.28,8.53,11.8,14.35,24.66,17.74,38.47.76,3.11,1.44,6.32,1.87,9.64,1.54,11.89,1.52,23.24-.08,33.95-.74,4.96-2,9.58-3.65,13.89-3.18,8.31-7.88,16.88-14.03,25.72-2.58,3.68-5.52,7.56-8.84,11.62-10.15,12.44-25.4,27.84-45.76,46.2-9.83,9.26-20.67,18.21-32.55,26.87-13.4,9.81-27.71,14.46-41.7,18.88-11.26,3.56-24.84,7.05-41.71,6.12-3.97-.22-7.7-.43-11.28-.84-12.39-1.34-22.72-4.91-34.81-15.34-2.6-1.68-19.66-17.02-19.66-17.02"/>
</svg>