<?xml version="1.0" encoding="UTF-8"?>
<svg id="Layer_1" data-name="Layer 1" xmlns="http://www.w3.org/2000/svg" viewBox="0 0 1056 1000">
  <path d="M682,771.5l-29-26.12c-6.81-7.33-16.8-18.11-29-31.38l-99-114c-22-25.33-39.83-44-53.5-56s-29.17-18-46.5-18-33.83,5.33-47.5,16c-13.67,10.67-31.83,26-54.5,46l-235,212-59-66,248-225c24.67-22,47.5-39.67,68.5-53s45.5-20,73.5-20c24,0,45.17,5.67,63.5,17s40.5,31.67,66.5,61l102,117c15.2,17.86,32.77,36.61,53,55.5,10.95,10.22,21.77,19.63,32.32,28.29-9.36,12.33-40.17,42.89-54.32,56.71Z"/>
</svg>