<?xml version="1.0" encoding="UTF-8"?>
<svg id="Layer_1" data-name="Layer 1" xmlns="http://www.w3.org/2000/svg" viewBox="0 0 1056 1000">
  <path d="M651.57,743.84l52.43-57.34s12.24,10,23.48,13.84c9.83,3.36,17.9,3.66,22.52,3.66,18.67,0,35.5-5.33,50.5-16s27.5-21,37.5-31c20.67-20.67,34.33-36.67,41-48s10-22.33,10-33c0-13.33-2.5-24.67-7.5-34s-11.5-18.67-19.5-28l-261-299,56-49,259,294c20,22.67,35.5,42.67,46.5,60s16.5,37.67,16.5,61c0,24.67-3.5,43.83-10.5,57.5s-17.17,28.17-30.5,43.5c-12.67,14.67-31.67,32.67-57,54-22.67,20-42.83,34.83-60.5,44.5s-39.5,14.5-65.5,14.5c-29.33,0-47.44-.26-73-23.5l-30.43-27.66Z"/>
</svg>