<?xml version="1.0" encoding="UTF-8"?>
<svg id="Layer_1" xmlns="http://www.w3.org/2000/svg" version="1.1" viewBox="0 0 1056 1000">
  <!-- Generator: Adobe Illustrator 29.8.2, SVG Export Plug-In . SVG Version: 2.1.1 Build 3)  -->
  <path d="M361,732c0-44.67,20.33-67,61-67s63,22.33,63,67c0,24-6.17,41.33-18.5,52s-27.17,16-44.5,16c-40.67,0-61-22.67-61-68Z"/>
  <path d="M651.57,743.84l52.43-57.34s12.24,10,23.48,13.84c9.83,3.36,17.9,3.66,22.52,3.66,18.67,0,35.5-5.33,50.5-16s27.5-21,37.5-31c20.67-20.67,34.33-36.67,41-48s10-22.33,10-33c0-13.33-2.5-24.67-7.5-34s-11.5-18.67-19.5-28l-261-299,56-49,259,294c20,22.67,35.5,42.67,46.5,60s16.5,37.67,16.5,61c0,24.67-3.5,43.83-10.5,57.5s-17.17,28.17-30.5,43.5c-12.67,14.67-31.67,32.67-57,54-22.67,20-42.83,34.83-60.5,44.5s-39.5,14.5-65.5,14.5c-29.33,0-47.44-.26-73-23.5l-30.43-27.66Z"/>
  <path d="M682,771.5l-29-26.12c-6.81-7.33-16.8-18.11-29-31.38l-99-114c-22-25.33-39.83-44-53.5-56s-29.17-18-46.5-18-33.83,5.33-47.5,16c-13.67,10.67-31.83,26-54.5,46l-235,212-59-66,248-225c24.67-22,47.5-39.67,68.5-53s45.5-20,73.5-20c24,0,45.17,5.67,63.5,17s40.5,31.67,66.5,61l102,117c15.2,17.86,32.77,36.61,53,55.5,10.95,10.22,21.77,19.63,32.32,28.29-9.36,12.33-40.17,42.89-54.32,56.71Z"/>
</svg>